<?xml version="1.0" encoding="iso-8859-1"?>
<!-- Generator: Adobe Illustrator 19.0.0, SVG Export Plug-In . SVG Version: 6.00 Build 0)  -->
<svg version="1.1" id="Capa_1" xmlns="http://www.w3.org/2000/svg" xmlns:xlink="http://www.w3.org/1999/xlink" x="0px" y="0px"
	 viewBox="0 0 512 512" style="enable-background:new 0 0 512 512;" xml:space="preserve">
<linearGradient id="SVGID_1_" gradientUnits="userSpaceOnUse" x1="15.937" y1="258" x2="496.063" y2="258" gradientTransform="matrix(1 0 0 -1 0 514)">
	<stop  offset="0" style="stop-color:#00F2FE"/>
	<stop  offset="0.021" style="stop-color:#03EFFE"/>
	<stop  offset="0.293" style="stop-color:#24D2FE"/>
	<stop  offset="0.554" style="stop-color:#3CBDFE"/>
	<stop  offset="0.796" style="stop-color:#4AB0FE"/>
	<stop  offset="1" style="stop-color:#4FACFE"/>
</linearGradient>
<path style="fill:url(#SVGID_1_);" d="M127.937,326c11.046,0,20,8.954,20,20l0,0c0,11.046-8.954,20-20,20s-20-8.954-20-20l0,0
	C107.937,334.954,116.891,326,127.937,326z M182.937,346L182.937,346c0,11.046,8.954,20,20,20s20-8.954,20-20l0,0
	c0-11.046-8.954-20-20-20S182.937,334.954,182.937,346z M257.937,346L257.937,346c0,11.046,8.954,20,20,20s20-8.954,20-20l0,0
	c0-11.046-8.954-20-20-20S257.937,334.954,257.937,346z M364.937,492c0,11.046-8.954,20-20,20h-249c-44.112,0-80-35.888-80-80V268
	c0-44.112,35.888-80,80-80H119.9v-70.534C119.9,52.695,173.732,0,239.9,0s120,52.695,120,117.466V188h24.037
	c8.334,0,15.551,0.907,22.064,2.773c10.618,3.043,16.76,14.117,13.718,24.735c-3.043,10.618-14.117,16.76-24.735,13.718
	c-2.88-0.825-6.493-1.227-11.047-1.227h-288c-22.056,0-40,17.944-40,40v164c0,22.056,17.944,40,40,40h249
	C355.983,472,364.937,480.954,364.937,492z M159.9,188h160v-70.534c0-42.715-35.888-77.466-80-77.466s-80,34.751-80,77.466V188z
	 M424.937,472L424.937,472c-11.046,0-20,8.954-20,20s8.954,20,20,20l0,0c11.046,0,20-8.954,20-20S435.983,472,424.937,472z
	 M496.046,331.21c-0.438-38.789-32.13-70.21-71.021-70.21C385.863,261,354,292.862,354,332.025c0,11.046,8.954,20,20,20
	s20-8.954,20-20C394,314.918,407.918,301,425.026,301s31.025,13.918,31.025,31.025c0,0.182,0.002,0.363,0.007,0.543
	c-0.206,12.247-7.563,23.211-18.864,28.035c-19.541,8.345-32.168,27.618-32.168,49.101V427c0,11.046,8.954,20,20,20s20-8.954,20-20
	v-17.296c0-5.438,3.092-10.271,7.875-12.313c26.227-11.196,43.169-36.855,43.162-65.37
	C496.063,331.749,496.057,331.479,496.046,331.21z"/>
<g>
</g>
<g>
</g>
<g>
</g>
<g>
</g>
<g>
</g>
<g>
</g>
<g>
</g>
<g>
</g>
<g>
</g>
<g>
</g>
<g>
</g>
<g>
</g>
<g>
</g>
<g>
</g>
<g>
</g>
</svg>
