<?xml version="1.0" encoding="UTF-8"?>
<svg width="342px" height="338px" viewBox="0 0 342 338" version="1.1" xmlns="http://www.w3.org/2000/svg" xmlns:xlink="http://www.w3.org/1999/xlink">
    <!-- Generator: Sketch 53.2 (72643) - https://sketchapp.com -->
    <title>367160-PAZLSN-878</title>
    <desc>Created with Sketch.</desc>
    <defs>
        <polygon id="path-1" points="0.825 0.996 0.799 0.96 0.863 0.914 1.589 0.818 1.615 0.852 1.551 0.899"></polygon>
    </defs>
    <g id="Mockup" stroke="none" stroke-width="1" fill="none" fill-rule="evenodd">
        <g id="367160-PAZLSN-878">
            <ellipse id="Oval" fill="#626AA2" cx="35.399" cy="313.171" rx="34.5" ry="18"></ellipse>
            <ellipse id="Oval" fill="#626AA2" cx="116.5" cy="298" rx="34.5" ry="18"></ellipse>
            <ellipse id="Oval" fill="#626AA2" cx="306.87" cy="196.056" rx="34.5" ry="18"></ellipse>
            <polyline id="Fill-54" fill="#58619D" points="68.508 118.793 37.61 136.744 33.196 187.946 51.44 199.423 88.518 175.882 85.87 120.854 78.817 122.313 73.805 115.851 68.508 118.793"></polyline>
            <polyline id="Fill-55" fill="#E6E4EC" points="37.61 136.744 42.907 147.043 52.029 141.771 51.44 199.423 33.196 187.946 37.61 136.744"></polyline>
            <polyline id="Fill-56" fill="#CCD0DF" points="52.029 141.771 85.87 120.854 88.518 175.882 51.44 199.423 52.029 141.771"></polyline>
            <path d="M65.955,144.496 C65.745,145.866 64.945,146.88 64.167,146.761 C63.389,146.642 62.928,145.436 63.137,144.065 C63.347,142.695 64.147,141.682 64.925,141.801 C65.703,141.92 66.164,143.126 65.955,144.496" id="Fill-57" fill="#312D5A"></path>
            <path d="M77.056,137.644 C76.846,139.013 76.046,140.027 75.268,139.909 C74.49,139.79 74.029,138.583 74.238,137.213 C74.448,135.843 75.248,134.829 76.026,134.948 C76.804,135.067 77.265,136.274 77.056,137.644" id="Fill-58" fill="#312D5A"></path>
            <polyline id="Fill-59" fill="#CCD0DF" points="33.196 187.946 42.604 184.428 51.44 199.423 33.196 187.946"></polyline>
            <polyline id="Fill-60" fill="#404085" points="73.805 115.851 73.805 128.308 52.029 141.771 42.907 147.043 37.61 136.744 71.526 117.117"></polyline>
            <path d="M70.356,157.638 C69.676,157.638 69.034,157.436 68.438,157.031 C64.719,154.515 64.096,144.725 64.071,144.308 L65.021,144.253 C65.027,144.349 65.639,153.988 68.971,156.243 C69.675,156.719 70.437,156.81 71.307,156.52 C75.963,154.969 75.676,142.248 75.174,137.479 L76.12,137.378 C76.197,138.109 77.936,155.313 71.608,157.423 C71.179,157.566 70.761,157.638 70.356,157.638" id="Fill-61" fill="#312D5A"></path>
            <polyline id="Fill-62" fill="#58619D" points="96.169 133.378 65.271 151.328 60.857 202.531 79.102 214.008 116.179 190.466 113.531 135.438 106.478 136.897 101.466 130.435 96.169 133.378"></polyline>
            <polyline id="Fill-63" fill="#E6E4EC" points="65.271 151.328 70.568 161.628 79.69 156.356 79.102 214.008 60.857 202.531 65.271 151.328"></polyline>
            <polyline id="Fill-64" fill="#CCD0DF" points="79.69 156.356 113.531 135.438 116.179 190.466 79.102 214.008 79.69 156.356"></polyline>
            <path d="M93.616,159.08 C93.406,160.45 92.606,161.464 91.828,161.345 C91.05,161.227 90.589,160.02 90.798,158.649 C91.008,157.28 91.808,156.266 92.586,156.385 C93.364,156.504 93.825,157.711 93.616,159.08" id="Fill-65" fill="#312D5A"></path>
            <path d="M104.717,152.228 C104.507,153.598 103.707,154.611 102.929,154.493 C102.151,154.374 101.69,153.167 101.899,151.797 C102.109,150.428 102.909,149.414 103.688,149.532 C104.465,149.651 104.926,150.858 104.717,152.228" id="Fill-66" fill="#312D5A"></path>
            <polyline id="Fill-67" fill="#CCD0DF" points="60.857 202.531 70.265 199.012 79.102 214.008 60.857 202.531"></polyline>
            <polyline id="Fill-68" fill="#404085" points="101.466 130.435 101.466 142.893 79.69 156.356 70.568 161.628 65.271 151.328 99.187 131.701"></polyline>
            <path d="M98.018,172.223 C97.337,172.223 96.695,172.02 96.099,171.615 C92.38,169.099 91.757,159.309 91.732,158.893 L92.682,158.837 C92.688,158.934 93.3,168.573 96.632,170.827 C97.336,171.303 98.098,171.394 98.968,171.104 C103.624,169.553 103.337,156.832 102.835,152.063 L103.781,151.962 C103.858,152.693 105.597,169.898 99.27,172.008 C98.84,172.15 98.422,172.223 98.018,172.223" id="Fill-69" fill="#312D5A"></path>
            <path d="M289.449,147.394 L289.338,147.365 C289.227,147.304 289.188,147.163 289.249,147.052 L293.497,139.421 C293.559,139.31 293.698,139.27 293.81,139.332 C293.92,139.394 293.96,139.534 293.898,139.645 L289.65,147.276 L289.449,147.394" id="Fill-70" fill="#312D5A"></path>
            <polyline id="Fill-71" fill="#BA7E3F" points="296.184 140.84 285.123 147.266 283.543 165.596 290.074 169.704 303.348 161.276 302.399 141.577 299.874 142.1 298.08 139.786 296.184 140.84"></polyline>
            <polyline id="Fill-72" fill="#E6C19C" points="285.123 147.266 287.019 150.953 290.284 149.065 290.074 169.704 283.543 165.596 285.123 147.266"></polyline>
            <polyline id="Fill-73" fill="#E6A182" points="290.284 149.065 302.399 141.577 303.348 161.276 290.074 169.704 290.284 149.065"></polyline>
            <path d="M295.27,150.041 C295.195,150.531 294.908,150.895 294.63,150.852 C294.352,150.809 294.187,150.377 294.262,149.887 C294.336,149.396 294.623,149.033 294.901,149.076 C295.18,149.118 295.345,149.551 295.27,150.041" id="Fill-74" fill="#312D5A"></path>
            <path d="M299.244,147.588 C299.169,148.078 298.883,148.441 298.604,148.398 C298.325,148.355 298.16,147.924 298.235,147.434 C298.311,146.943 298.597,146.58 298.875,146.623 C299.153,146.665 299.318,147.098 299.244,147.588" id="Fill-75" fill="#312D5A"></path>
            <polyline id="Fill-76" fill="#E6A182" points="283.543 165.596 286.91 164.336 290.074 169.704 283.543 165.596"></polyline>
            <path d="M317.547,93.869 C317.547,97.835 314.331,101.051 310.364,101.051 C306.397,101.051 303.183,97.835 303.183,93.869 C303.183,89.902 306.397,86.687 310.364,86.687 C314.331,86.687 317.547,89.902 317.547,93.869" id="Fill-77" fill="#E08AB0"></path>
            <path d="M300.322,128.706 C300.322,128.706 299.734,136.537 299.517,138.091 C299.3,139.646 298.978,155.034 299.779,159.739 C300.091,161.572 296.049,163.788 293.963,167.727 C291.521,172.337 290.532,178.053 289.076,180.54 L289.073,180.54 L288.979,180.709 C288.762,181.083 288.587,181.396 288.464,181.636 L286.409,183.438 C285.845,183.934 285.493,184.626 285.425,185.373 L284.516,195.33 C284.458,195.965 284.856,196.553 285.468,196.734 C286.156,196.938 286.883,196.563 287.114,195.883 C288.181,192.745 290.938,184.598 290.937,184.252 C295.424,177.685 305.908,165.771 307.461,162.341 C309.21,158.477 313.018,139.911 313.018,139.911 L316.257,132.299 L300.322,128.706" id="Fill-78" fill="#DF79A5"></path>
            <path d="M314.182,191.573 C315.146,187.854 319.717,166.306 319.717,159.976 C319.717,153.141 317.477,128.669 317.477,128.669 L299.84,128.197 L298.487,134.167 L306.419,140.646 C306.419,140.646 311.576,159.845 312.056,163.675 C312.248,165.216 309.976,166.545 309.799,171.508 C309.556,178.327 310.681,195.602 310.722,195.726 C310.798,195.955 317.765,195.095 317.765,195.095 C317.765,195.095 324.892,193.895 324.279,192.976 C323.878,192.374 315,192.841 314.182,191.573" id="Fill-79" fill="#E08AB0"></path>
            <path d="M304.867,101.051 C304.867,101.051 299.121,98.326 296.967,101.051 C294.812,103.776 288.587,116.466 287.869,120.296 C287.15,124.127 288.587,132.985 289.306,135.379 C290.023,137.774 293.136,135.379 293.136,135.379 C293.136,135.379 294.094,123.648 294.333,122.69 C294.572,121.733 299.121,110.241 299.121,110.241 C299.121,110.241 300.558,115.987 301.516,118.142 C302.474,120.296 300.318,126.521 299.84,128.197 C299.36,129.873 303.67,131.549 307.262,131.788 C310.853,132.028 317.547,129.155 317.547,129.155 C317.547,129.155 316.148,124.014 316.218,118.88 C316.289,113.667 317.813,108.454 315.642,107.368 C311.332,105.213 304.867,101.051 304.867,101.051" id="Fill-80" fill="#CCD0DF"></path>
            <path d="M291.416,111.235 C289.691,114.908 288.199,118.537 287.869,120.296 C287.15,124.127 288.587,132.985 289.306,135.379 C290.023,137.774 293.136,135.379 293.136,135.379 C293.136,135.379 294.094,123.648 294.333,122.69 C294.482,122.094 296.305,117.408 297.656,113.96 C294.848,114.255 292.669,112.566 291.416,111.235" id="Fill-81" fill="#E08AB0"></path>
            <path d="M315.642,107.368 C314.488,106.792 313.182,106.07 311.886,105.325 C310.812,105.746 309.96,106.125 309.96,106.125 L309.238,113.345 C309.238,113.345 309.635,124.826 310.427,131.468 C313.813,130.756 317.547,129.155 317.547,129.155 C317.547,129.155 316.066,123.602 316.142,118.497 C316.218,113.262 317.823,108.459 315.642,107.368" id="Fill-82" fill="#C2C2D7"></path>
            <path d="M336.869,110.09 C336.869,111.791 335.49,113.169 333.79,113.169 C332.09,113.169 330.711,111.791 330.711,110.09 C330.711,108.39 332.09,107.011 333.79,107.011 C335.49,107.011 336.869,108.39 336.869,110.09" id="Fill-83" fill="#E08AB0"></path>
            <path d="M308.002,103.16 L315.642,107.368 C315.642,107.368 317.796,108.135 319.95,113.378 C322.105,118.621 325.218,123.648 326.654,124.127 C328.091,124.606 332.423,113.335 333.381,112.617 C334.338,111.899 335.991,110.29 335.752,113.378 C335.513,116.466 333.598,130.352 330.485,131.549 C327.372,132.746 306.925,116.567 306.686,112.258 C306.446,107.948 308.002,103.16 308.002,103.16" id="Fill-84" fill="#CCD0DF"></path>
            <path d="M333.261,112.019 C332.303,112.737 328.091,124.606 326.654,124.127 C326.574,124.1 326.487,124.054 326.396,124 L326.317,123.948 L326.095,123.782 L326.017,123.718 C325.919,123.633 325.816,123.537 325.711,123.43 L325.61,123.322 C325.534,123.24 325.456,123.155 325.376,123.063 L325.237,122.9 C325.161,122.808 325.083,122.711 325.005,122.611 C324.925,122.509 324.844,122.403 324.762,122.293 C324.691,122.2 324.622,122.107 324.552,122.008 C324.479,121.908 324.406,121.803 324.333,121.696 L324.19,121.489 C323.905,121.067 323.612,120.607 323.314,120.113 L323.274,120.047 C322.834,119.313 322.387,118.512 321.944,117.663 L321.943,117.66 C320.923,119.154 318.992,121.71 316.802,123.394 C322.528,128.072 328.862,132.173 330.485,131.549 C333.598,130.352 335.513,116.466 335.752,113.378 C335.991,110.29 334.219,111.3 333.261,112.019" id="Fill-85" fill="#E08AB0"></path>
            <path d="M328.674,113.001 L328.635,112.949 L328.431,112.668 L328.968,112.101 C329.794,110.365 332.009,105.716 332.137,105.447 C332.295,105.115 332.66,105.066 332.66,105.066 C332.66,105.066 335.172,104.733 336.043,104.619 L336.304,104.343 L336.508,104.624 L336.51,104.867 C336.51,104.867 333.19,111.836 333.031,112.168 C332.981,112.272 332.911,112.349 332.838,112.404 C332.68,112.525 332.509,112.548 332.509,112.548 L329.229,112.982 C329.229,112.982 329.229,112.982 328.865,113.03 C328.769,113.043 328.709,113.029 328.674,113.001" id="Fill-86" fill="#32327C"></path>
            <path d="M333.302,110.892 L329.485,111.012 C329.285,111.434 329.106,111.809 328.968,112.101 L328.431,112.668 L328.635,112.949 L328.674,113.001 C328.709,113.029 328.769,113.043 328.865,113.03 C329.229,112.982 329.229,112.982 329.229,112.982 L332.509,112.548 C332.509,112.548 332.68,112.525 332.838,112.404 C332.911,112.349 332.981,112.272 333.031,112.168 C333.065,112.097 333.245,111.72 333.506,111.172 L333.302,110.892" id="Fill-87" fill="#32327C"></path>
            <path d="M336.51,104.867 L336.508,104.624 L336.304,104.343 L336.043,104.619 L335.982,104.626 L336.147,104.918 L336.352,105.199 C336.452,104.989 336.51,104.867 336.51,104.867" id="Fill-88" fill="#32327C"></path>
            <path d="M329.025,112.702 L332.305,112.267 C332.305,112.267 332.669,112.218 332.827,111.887 C332.986,111.556 336.306,104.587 336.306,104.587 C336.306,104.587 336.464,104.255 336.1,104.303 C335.735,104.352 332.456,104.786 332.456,104.786 C332.456,104.786 332.091,104.834 331.933,105.166 C331.774,105.498 328.455,112.466 328.455,112.466 C328.455,112.466 328.297,112.798 328.661,112.75 C329.025,112.702 329.025,112.702 329.025,112.702" id="Fill-89" fill="#47498C"></path>
            <polyline id="Fill-90" fill="#312D5A" points="328.93 111.471 331.774 105.499 336.148 104.918 333.302 110.892 328.93 111.471"></polyline>
            <path d="M331.043,111.486 C331.124,111.598 331.024,111.808 330.82,111.957 C330.616,112.105 330.385,112.135 330.304,112.024 C330.224,111.912 330.323,111.702 330.527,111.553 C330.731,111.405 330.962,111.375 331.043,111.486" id="Fill-91" fill="#312D5A"></path>
            <polyline id="Fill-92" fill="#312D5A" points="333.554 104.908 333.502 105.017 333.383 105.032 333.435 104.924 333.554 104.908"></polyline>
            <polyline id="Fill-93" fill="#312D5A" points="333.724 104.931 333.7 104.979 333.646 104.987 333.67 104.937 333.724 104.931"></polyline>
            <g id="Group-96" transform="translate(333.000000, 104.000000)">
                <mask id="mask-2" fill="white">
                    <use xlink:href="#path-1"></use>
                </mask>
                <g id="Clip-95"></g>
                <polygon id="Fill-94" fill="#373274" mask="url(#mask-2)" points="0.799 0.996 1.615 0.996 1.615 0.818 0.799 0.818"></polygon>
            </g>
            <path d="M289.306,135.379 C289.306,135.379 290.974,141.075 293.84,141.136 C293.53,139.688 293.84,136.555 293.84,136.555 C293.84,136.555 293.535,137.184 293.136,135.379 C292.736,133.575 291.625,131.749 291.625,131.749 L289.306,135.379" id="Fill-97" fill="#E08AB0"></path>
            <path d="M294.766,150.193 L294.765,150.193 C294.638,150.193 294.535,150.09 294.536,149.963 L294.569,137.329 C294.569,137.219 294.648,137.125 294.758,137.104 C294.864,137.081 294.973,137.145 295.013,137.248 L298.953,147.428 C299,147.546 298.94,147.679 298.822,147.725 C298.705,147.769 298.571,147.713 298.525,147.593 L295.025,138.551 L294.995,149.965 C294.994,150.091 294.892,150.193 294.766,150.193" id="Fill-98" fill="#312D5A"></path>
            <path d="M296.13,138.845 C296.13,140.11 295.104,141.136 293.84,141.136 C292.575,141.136 291.549,140.11 291.549,138.845 C291.549,137.58 292.575,136.555 293.84,136.555 C295.104,136.555 296.13,137.58 296.13,138.845" id="Fill-99" fill="#E08AB0"></path>
            <path d="M294.994,150.083 C294.87,150.083 294.768,149.984 294.765,149.858 L294.509,139.605 C294.506,139.479 294.606,139.374 294.733,139.371 L294.739,139.371 C294.863,139.371 294.966,139.469 294.969,139.595 L295.225,149.848 C295.228,149.975 295.127,150.079 295,150.083 L294.994,150.083" id="Fill-100" fill="#312D5A"></path>
            <path d="M305.767,95.691 L304.691,103.399 C305.448,105.13 307.187,106.223 309.074,106.156 L309.96,106.125 L311.682,98.021 L305.767,95.691" id="Fill-101" fill="#E08AB0"></path>
            <path d="M315.095,95.961 C315.13,94.897 313.664,94.144 312.819,94.792 C312.218,95.254 312.085,96.14 312.301,96.867 C312.517,97.593 313.011,98.199 313.494,98.783 C311.223,100.307 308.762,101.549 306.187,102.472 C305.115,100.92 304.044,99.367 302.973,97.814 C302.488,97.113 301.996,96.394 301.772,95.571 C301.266,93.7 302.019,90.397 303.265,88.913 C305.02,86.822 307.405,85.9 310.125,85.681 C312.229,85.512 314.78,86.965 316.143,88.605 C317.939,90.768 315.935,93.638 315.095,95.961" id="Fill-102" fill="#A6527F"></path>
            <path d="M299.035,99.473 C298.979,99.688 298.922,99.913 298.965,100.131 C299.011,100.36 299.159,100.554 299.307,100.735 C300.045,101.641 300.874,102.473 301.792,103.194 C302.552,103.791 303.375,104.312 304.265,104.688 C307.218,105.938 310.578,105.495 313.75,105.03 C313.529,102.949 313.457,100.853 313.533,98.762 C312.2,98.272 311.228,96.927 311.18,95.507 C311.146,94.523 311.517,93.533 311.321,92.567 C310.762,89.799 306.87,89.218 304.58,89.56 C302.323,89.896 301.614,91.856 300.878,93.772 C300.162,95.638 299.547,97.542 299.035,99.473" id="Fill-103" fill="#A6527F"></path>
            <path d="M314.303,97.733 C314.303,98.156 313.959,98.499 313.536,98.499 C313.113,98.499 312.771,98.156 312.771,97.733 C312.771,97.31 313.113,96.967 313.536,96.967 C313.959,96.967 314.303,97.31 314.303,97.733" id="Fill-104" fill="#CCD0DF"></path>
            <path d="M300.348,125.808 L294.849,149.299 C294.849,149.299 301.135,157.574 308.025,158.493 C314.917,159.412 322.902,155.137 322.902,155.137 L317.44,128.608 C317.44,128.608 306.664,130.199 302.742,127.473 L300.348,125.808" id="Fill-105" fill="#DA4F80"></path>
            <path d="M288.752,183.242 C288.965,183.393 289.169,183.565 289.301,183.79 C289.521,184.165 289.509,184.628 289.483,185.063 C289.262,188.782 288.539,192.471 287.339,195.997 C287.28,196.171 287.219,196.346 287.116,196.497 C286.764,197.022 285.973,197.124 285.419,196.819 C284.864,196.515 284.536,195.899 284.428,195.276 C284.318,194.653 284.398,194.014 284.483,193.388 C284.597,192.552 284.718,191.717 284.775,190.877 C284.88,189.357 284.778,187.823 284.984,186.314 C285.134,185.219 285.462,184.111 286.103,183.197 C286.87,182.103 287.758,182.537 288.752,183.242" id="Fill-106" fill="#312D5A"></path>
            <path d="M309.996,192.407 C312.798,194.242 316.484,194.649 319.619,193.471 C319.864,193.378 320.126,193.259 320.241,193.023 C320.356,192.788 320.204,192.427 319.943,192.45 C321.046,192.307 322.252,192.271 323.359,192.362 C323.701,192.391 324.057,192.435 324.339,192.629 C324.62,192.823 324.797,193.213 324.644,193.519 C324.552,193.7 324.37,193.814 324.193,193.914 C323.451,194.333 322.655,194.651 321.839,194.891 C320.542,195.271 319.196,195.451 317.856,195.631 C317.42,195.689 316.982,195.748 316.546,195.807 C314.561,196.073 312.531,196.338 310.566,195.947 C310.439,195.922 310.306,195.89 310.214,195.798 C310.12,195.703 310.091,195.563 310.066,195.433 C309.89,194.47 309.983,193.387 309.996,192.407" id="Fill-107" fill="#312D5A"></path>
            <polyline id="Fill-108" fill="#38347E" points="276.554 70.93 284.769 263.453 220.426 303.929 89.662 220.903 99.002 17.644 123.877 22.791 141.552 0.001 276.554 70.93"></polyline>
            <polyline id="Fill-109" fill="#CCD0DF" points="276.554 70.93 256.954 95.307 225.701 88.662 220.426 303.929 284.769 263.453 276.554 70.93"></polyline>
            <polyline id="Fill-110" fill="#E2E5ED" points="225.701 88.662 99.002 17.644 89.662 220.903 220.426 303.929 225.701 88.662"></polyline>
            <path d="M169.996,76.789 C170.271,78.82 171.429,80.34 172.583,80.184 C173.736,80.027 174.448,78.254 174.173,76.223 C173.897,74.192 172.739,72.672 171.585,72.828 C170.432,72.985 169.72,74.758 169.996,76.789" id="Fill-111" fill="#58619D"></path>
            <path d="M135.749,54.83 C136.022,56.846 137.172,58.356 138.318,58.2 C139.463,58.045 140.17,56.284 139.897,54.267 C139.624,52.25 138.473,50.741 137.328,50.896 C136.182,51.052 135.475,52.813 135.749,54.83" id="Fill-112" fill="#58619D"></path>
            <polyline id="Fill-113" fill="#9594BD" points="220.426 303.929 251.59 251.043 284.769 263.453 274.683 269.798 274.204 270.099 250.601 284.947 250.122 285.248 226.518 300.096 226.04 300.397 220.426 303.929"></polyline>
            <path d="M153.27,117.046 C155.391,117.083 157.405,116.485 159.287,115.255 C169.677,108.478 172.796,83.774 173.44,77.315 C173.523,76.484 172.905,75.753 172.072,75.69 C171.271,75.629 170.565,76.215 170.482,77.015 C169.853,83.11 166.847,106.782 157.665,112.77 C155.446,114.216 153.064,114.46 150.364,113.51 C136.372,108.582 137.409,71.182 139.142,55.361 C139.23,54.555 138.655,53.836 137.851,53.737 C137.029,53.636 136.283,54.223 136.196,55.046 C135.235,64.141 131.332,109.954 149.377,116.311 C150.708,116.78 152.009,117.025 153.27,117.046" id="Fill-114" fill="#38347E"></path>
            <polyline id="Fill-115" fill="#58619D" points="141.552 0.001 141.552 41.495 225.701 88.662 256.954 95.307 276.554 70.93 141.552 0.001"></polyline>
            <polyline id="Fill-116" fill="#404085" points="120.996 239.066 120.996 157.086 176.676 189.485 176.676 274.248 120.996 239.066"></polyline>
            <polyline id="Fill-117" fill="#9F9DC2" points="121.915 239.066 121.915 157.086 142.154 168.863 142.154 251.854 121.915 239.066"></polyline>
            <polyline id="Fill-118" fill="#9F9DC2" points="142.154 251.854 141.235 252.237 141.235 168.542 142.24 168.542 141.738 170.909 142.154 251.854"></polyline>
            <polyline id="Fill-119" fill="#7275A9" points="120.996 239.066 120.996 157.086 141.235 168.863 141.235 251.854 120.996 239.066"></polyline>
            <polyline id="Fill-120" fill="#7275A9" points="156.475 261.484 156.475 177.727 176.715 189.504 176.676 274.248 156.475 261.484"></polyline>
            <path d="M176.676,274.248 L120.996,239.066 L120.996,157.086 L176.676,189.485 L176.676,274.248 Z M119.158,153.891 L119.158,240.079 L178.514,277.583 L178.514,188.429 L119.158,153.891 L119.158,153.891 Z" id="Fill-121" fill="#38347E"></path>
            <polyline id="Fill-122" fill="#9F9DC2" points="120.996 235.231 141.235 218.519 141.235 214.365 120.996 231.109 120.996 235.231"></polyline>
            <polyline id="Fill-123" fill="#9F9DC2" points="120.996 210.77 141.235 194.057 141.235 192.66 120.996 209.404 120.996 210.77"></polyline>
            <polyline id="Fill-124" fill="#9F9DC2" points="120.996 204.051 141.235 187.338 141.235 183.184 120.996 199.927 120.996 204.051"></polyline>
            <polyline id="Fill-125" fill="#9F9DC2" points="120.996 177.079 135.199 165.351 132.255 163.638 120.996 172.953 120.996 177.079"></polyline>
            <polyline id="Fill-126" fill="#9F9DC2" points="156.475 248.233 176.695 232.062 176.697 227.912 156.475 244.108 156.475 248.233"></polyline>
            <polyline id="Fill-127" fill="#9F9DC2" points="156.475 231.897 176.703 215.031 176.704 213.641 156.475 230.529 156.475 231.897"></polyline>
            <polyline id="Fill-128" fill="#9F9DC2" points="156.475 201.83 173.599 187.69 170.65 185.975 156.475 197.702 156.475 201.83"></polyline>
            <polyline id="Fill-129" fill="#DA4F80" points="100.487 120.099 85.66 134.149 93.092 138.395 107.901 124.353 100.487 120.099"></polyline>
            <polyline id="Fill-130" fill="#FFFFFE" points="107.911 124.344 93.083 138.394 100.515 142.641 115.324 128.598 107.911 124.344"></polyline>
            <polyline id="Fill-131" fill="#DA4F80" points="115.324 128.591 100.496 142.642 107.928 146.888 122.737 132.845 115.324 128.591"></polyline>
            <polyline id="Fill-132" fill="#FFFFFE" points="122.737 132.838 107.91 146.889 115.342 151.135 130.151 137.092 122.737 132.838"></polyline>
            <polyline id="Fill-133" fill="#DA4F80" points="130.151 137.085 115.323 151.136 122.755 155.382 137.564 141.339 130.151 137.085"></polyline>
            <polyline id="Fill-134" fill="#FFFFFE" points="137.564 141.333 122.737 155.383 130.169 159.629 144.978 145.586 137.564 141.333"></polyline>
            <polyline id="Fill-135" fill="#DA4F80" points="144.978 145.58 130.15 159.63 137.583 163.876 152.392 149.833 144.978 145.58"></polyline>
            <polyline id="Fill-136" fill="#FFFFFE" points="152.392 149.827 137.564 163.877 144.996 168.123 159.805 154.08 152.392 149.827"></polyline>
            <polyline id="Fill-137" fill="#DA4F80" points="159.805 154.074 144.978 168.124 152.41 172.37 167.219 158.327 159.805 154.074"></polyline>
            <polyline id="Fill-138" fill="#FFFFFE" points="167.219 158.321 152.391 172.371 159.823 176.617 174.633 162.574 167.219 158.321"></polyline>
            <polyline id="Fill-139" fill="#DA4F80" points="174.633 162.568 159.805 176.618 167.237 180.864 182.046 166.821 174.633 162.568"></polyline>
            <polyline id="Fill-140" fill="#FFFFFE" points="182.046 166.815 167.218 180.865 174.65 185.111 189.459 171.068 182.046 166.815"></polyline>
            <polyline id="Fill-141" fill="#DA4F80" points="189.459 171.063 174.632 185.112 182.063 189.358 196.873 175.315 189.459 171.063"></polyline>
            <polyline id="Fill-142" fill="#FFFFFE" points="196.873 175.31 182.045 189.359 189.478 193.605 204.286 179.563 196.873 175.31"></polyline>
            <polyline id="Fill-143" fill="#DA4F80" points="204.286 179.557 189.459 193.606 196.891 197.853 211.7 183.81 204.286 179.557"></polyline>
            <polyline id="Fill-144" fill="#FFFFFE" points="211.7 183.804 196.872 197.854 204.305 202.1 219.113 188.057 211.7 183.804"></polyline>
            <path d="M85.66,134.149 C85.66,134.149 85.852,138.05 88.539,139.639 C91.717,141.518 93.083,138.394 93.083,138.394 L85.66,134.149" id="Fill-145" fill="#CA356D"></path>
            <path d="M93.069,138.383 C93.069,138.383 93.261,142.285 95.948,143.874 C99.126,145.752 100.492,142.629 100.492,142.629 L93.069,138.383" id="Fill-146" fill="#B7C6DB"></path>
            <path d="M100.478,142.618 C100.478,142.618 100.67,146.52 103.357,148.108 C106.535,149.987 107.901,146.863 107.901,146.863 L100.478,142.618" id="Fill-147" fill="#CA356D"></path>
            <path d="M107.887,146.853 C107.887,146.853 108.079,150.754 110.767,152.343 C113.944,154.222 115.31,151.099 115.31,151.099 L107.887,146.853" id="Fill-148" fill="#B7C6DB"></path>
            <path d="M115.296,151.088 C115.296,151.088 115.488,154.989 118.176,156.578 C121.354,158.456 122.719,155.333 122.719,155.333 L115.296,151.088" id="Fill-149" fill="#CA356D"></path>
            <path d="M122.706,155.322 C122.706,155.322 122.897,159.224 125.585,160.813 C128.763,162.691 130.128,159.567 130.128,159.567 L122.706,155.322" id="Fill-150" fill="#B7C6DB"></path>
            <path d="M130.115,159.557 C130.115,159.557 130.307,163.458 132.994,165.047 C136.172,166.926 137.538,163.802 137.538,163.802 L130.115,159.557" id="Fill-151" fill="#CA356D"></path>
            <path d="M137.524,163.792 C137.524,163.792 137.715,167.692 140.403,169.282 C143.581,171.16 144.947,168.037 144.947,168.037 L137.524,163.792" id="Fill-152" fill="#B7C6DB"></path>
            <path d="M144.933,168.026 C144.933,168.026 145.125,171.928 147.813,173.517 C150.99,175.396 152.356,172.271 152.356,172.271 L144.933,168.026" id="Fill-153" fill="#CA356D"></path>
            <path d="M152.342,172.261 C152.342,172.261 152.534,176.162 155.222,177.751 C158.399,179.63 159.765,176.506 159.765,176.506 L152.342,172.261" id="Fill-154" fill="#B7C6DB"></path>
            <path d="M159.751,176.496 C159.751,176.496 159.943,180.396 162.631,181.985 C165.809,183.864 167.174,180.741 167.174,180.741 L159.751,176.496" id="Fill-155" fill="#CA356D"></path>
            <path d="M167.161,180.73 C167.161,180.73 167.352,184.632 170.04,186.221 C173.218,188.1 174.583,184.976 174.583,184.976 L167.161,180.73" id="Fill-156" fill="#B7C6DB"></path>
            <path d="M174.569,184.965 C174.569,184.965 174.762,188.866 177.449,190.455 C180.627,192.334 181.992,189.21 181.992,189.21 L174.569,184.965" id="Fill-157" fill="#CA356D"></path>
            <path d="M181.979,189.199 C181.979,189.199 182.171,193.101 184.858,194.689 C188.036,196.568 189.401,193.445 189.401,193.445 L181.979,189.199" id="Fill-158" fill="#B7C6DB"></path>
            <path d="M189.388,193.435 C189.388,193.435 189.58,197.336 192.268,198.925 C195.445,200.803 196.811,197.68 196.811,197.68 L189.388,193.435" id="Fill-159" fill="#CA356D"></path>
            <path d="M196.797,197.669 C196.797,197.669 196.989,201.57 199.677,203.159 C202.854,205.038 204.22,201.914 204.22,201.914 L196.797,197.669" id="Fill-160" fill="#B7C6DB"></path>
            <path d="M99.629,249.633 L99.518,249.604 C99.407,249.542 99.367,249.401 99.429,249.291 L103.677,241.659 C103.738,241.548 103.878,241.509 103.989,241.57 C104.1,241.633 104.14,241.772 104.078,241.884 L99.83,249.515 L99.629,249.633" id="Fill-161" fill="#312D5A"></path>
            <polyline id="Fill-162" fill="#58619D" points="106.364 243.078 95.302 249.504 93.722 267.834 100.253 271.942 113.527 263.516 112.579 243.815 110.054 244.338 108.26 242.024 106.364 243.078"></polyline>
            <polyline id="Fill-163" fill="#E6E4EC" points="95.302 249.504 97.199 253.191 100.464 251.304 100.253 271.942 93.722 267.834 95.302 249.504"></polyline>
            <polyline id="Fill-164" fill="#CCD0DF" points="100.464 251.304 112.579 243.815 113.527 263.516 100.253 271.942 100.464 251.304"></polyline>
            <path d="M105.45,252.279 C105.375,252.77 105.088,253.133 104.81,253.09 C104.531,253.048 104.366,252.615 104.441,252.125 C104.516,251.635 104.803,251.271 105.081,251.314 C105.359,251.357 105.524,251.789 105.45,252.279" id="Fill-165" fill="#312D5A"></path>
            <path d="M109.424,249.826 C109.349,250.316 109.062,250.68 108.784,250.637 C108.505,250.595 108.34,250.162 108.415,249.672 C108.49,249.182 108.776,248.818 109.055,248.861 C109.333,248.904 109.499,249.336 109.424,249.826" id="Fill-166" fill="#312D5A"></path>
            <polyline id="Fill-167" fill="#CCD0DF" points="93.722 267.834 97.09 266.574 100.253 271.942 93.722 267.834"></polyline>
            <path d="M99.485,237.618 C99.485,237.618 101.153,243.313 104.02,243.374 C103.71,241.927 104.02,238.793 104.02,238.793 C104.02,238.793 103.715,239.423 103.316,237.618 C102.916,235.813 101.805,233.987 101.805,233.987 L99.485,237.618" id="Fill-168" fill="#D877A4"></path>
            <path d="M104.945,252.432 L104.945,252.432 C104.818,252.432 104.715,252.329 104.715,252.201 L104.749,239.567 C104.75,239.457 104.829,239.363 104.937,239.343 C105.044,239.319 105.153,239.383 105.193,239.486 L109.133,249.666 C109.179,249.784 109.121,249.918 109.002,249.964 C108.885,250.008 108.751,249.951 108.705,249.832 L105.206,240.79 L105.175,252.203 C105.174,252.329 105.072,252.432 104.945,252.432" id="Fill-169" fill="#312D5A"></path>
            <path d="M106.31,241.084 C106.31,242.349 105.285,243.374 104.02,243.374 C102.754,243.374 101.729,242.349 101.729,241.084 C101.729,239.818 102.754,238.793 104.02,238.793 C105.285,238.793 106.31,239.818 106.31,241.084" id="Fill-170" fill="#D877A4"></path>
            <path d="M131.829,232.742 L134.384,223.275 C134.42,223.142 134.341,223.005 134.208,222.969 C134.074,222.933 133.937,223.012 133.901,223.145 L131.346,232.612 C131.31,232.745 131.389,232.882 131.522,232.918 C131.656,232.954 131.793,232.875 131.829,232.742" id="Fill-171" fill="#453D7A"></path>
            <path d="M105.174,252.321 C105.05,252.321 104.948,252.223 104.945,252.098 L104.689,241.844 C104.686,241.718 104.786,241.612 104.913,241.609 L104.918,241.609 C105.043,241.609 105.145,241.708 105.148,241.833 L105.404,252.087 C105.407,252.213 105.307,252.318 105.18,252.321 L105.174,252.321" id="Fill-172" fill="#312D5A"></path>
            <path d="M143.871,209.036 C143.436,210.269 142.085,210.915 140.853,210.48 C139.62,210.046 138.974,208.695 139.408,207.463 C139.843,206.23 141.194,205.584 142.426,206.019 C143.659,206.453 144.305,207.805 143.871,209.036" id="Fill-173" fill="#D877A4"></path>
            <path d="M110.256,230.727 C110.256,230.727 107.585,251.24 107.359,261.153 C107.134,271.066 103.224,271.321 100.448,277.728 C97.671,284.134 95.869,290.667 95.869,290.667 L97.356,291.506 C97.356,291.506 110.514,275.347 112.091,273.77 C113.668,272.192 118.85,245.157 118.85,245.157 L110.256,230.727" id="Fill-174" fill="#333C83"></path>
            <path d="M97.356,291.506 C97.356,291.506 96.743,293.345 96.232,294.775 C95.722,296.205 96.232,299.373 95.415,300.701 C94.598,302.029 92.35,300.905 92.452,299.781 C92.554,298.657 93.167,294.366 93.474,293.651 C93.78,292.937 95.869,290.667 95.869,290.667 L97.356,291.506" id="Fill-175" fill="#363369"></path>
            <polyline id="Fill-176" fill="#9A2F5A" points="137.347 226.683 127.406 233.416 127.114 250.682 133.496 254.105 145.378 245.354 143.214 226.97 140.884 227.623 139.054 225.573 137.347 226.683"></polyline>
            <path d="M127.727,196.107 C127.727,200.074 124.511,203.29 120.544,203.29 C116.578,203.29 113.362,200.074 113.362,196.107 C113.362,192.141 116.578,188.925 120.544,188.925 C124.511,188.925 127.727,192.141 127.727,196.107" id="Fill-177" fill="#D877A4"></path>
            <path d="M123.567,292.903 C123.567,292.903 123.703,295.851 123.737,296.114 C123.771,296.377 125.02,297.011 126.848,296.643 C128.676,296.275 133.805,294.569 134.704,293.686 C135.602,292.803 132.762,292.993 131.025,293.152 C129.289,293.313 125.921,292.903 125.921,292.903 L123.567,292.903" id="Fill-178" fill="#363369"></path>
            <path d="M109.364,238.124 L117.272,244.627 C117.272,244.627 121.908,260.54 122.383,264.34 C122.858,268.141 123.579,288.617 123.567,292.903 C123.56,295.559 125.471,294.267 126.183,293.792 C126.896,293.316 129.983,267.451 129.983,260.67 C129.983,253.89 126.989,230.253 126.989,230.253 L110.256,230.318 L109.364,238.124" id="Fill-179" fill="#3A478B"></path>
            <path d="M140.456,209.29 C140.456,209.29 133.958,222.747 133.359,225.124 C132.897,226.954 136.289,229.545 137.631,228.125 C138.974,226.705 142.507,209.877 142.507,209.877 L140.456,209.29" id="Fill-180" fill="#D877A4"></path>
            <path d="M125.992,222.148 C126.271,216.286 127.131,210.686 125.821,209.606 C122.102,206.544 115.82,204.309 115.82,204.309 C115.82,204.309 110.074,201.583 107.919,204.309 C105.765,207.034 98.767,218.704 98.049,222.535 C97.675,224.526 97.886,227.874 98.273,230.968 C99.235,231.524 101.9,232.907 103.379,232.179 C103.433,228.608 103.522,224.504 103.654,223.976 C103.894,223.018 109.301,212.479 109.301,212.479 C109.301,212.479 110.738,218.226 111.695,220.381 C112.653,222.535 110.498,228.76 110.02,230.436 C109.541,232.111 113.85,233.787 117.441,234.026 C121.033,234.267 127.727,231.394 127.727,231.394 C127.727,231.394 125.807,226.051 125.992,222.148" id="Fill-181" fill="#E6C19C"></path>
            <path d="M103.316,237.618 C103.316,237.618 103.335,235.073 103.379,232.179 C101.9,232.907 99.235,231.524 98.273,230.968 C98.631,233.826 99.14,236.469 99.485,237.618 C100.203,240.013 103.316,237.618 103.316,237.618" id="Fill-182" fill="#D877A4"></path>
            <path d="M125.774,209.695 C124.705,208.975 124.936,211.127 123.639,210.382 C122.566,210.803 122.045,210.686 122.045,210.686 L121.286,215.695 C121.286,215.695 119.814,227.064 120.606,233.707 C123.993,232.995 127.727,231.394 127.727,231.394 C127.727,231.394 127.435,229.057 126.6,226.172 C124.913,220.346 127.385,210.781 125.774,209.695" id="Fill-183" fill="#D3AD87"></path>
            <path d="M115.947,197.93 L114.871,205.638 C115.628,207.368 117.366,208.461 119.254,208.395 L120.14,208.363 L121.862,200.26 L115.947,197.93" id="Fill-184" fill="#D877A4"></path>
            <path d="M125.274,198.2 C125.309,197.136 123.844,196.383 122.999,197.031 C122.397,197.492 122.264,198.378 122.48,199.105 C122.696,199.832 123.191,200.438 123.674,201.021 C121.402,202.546 118.942,203.788 116.367,204.711 C115.295,203.158 114.224,201.605 113.152,200.053 C112.668,199.352 112.175,198.632 111.952,197.81 C111.445,195.938 112.198,192.636 113.445,191.151 C115.2,189.061 117.585,188.139 120.305,187.92 C122.41,187.75 124.96,189.203 126.322,190.844 C128.119,193.007 126.115,195.877 125.274,198.2" id="Fill-185" fill="#453D7A"></path>
            <path d="M137.648,224.665 C137.217,223.706 136.696,222.787 136.041,221.966 C134.513,220.05 132.57,218.44 130.201,214.098 C127.487,209.122 124.247,208.787 124.247,208.787 C118.729,209.384 119.797,212.843 120.713,215.492 C121.192,216.879 122.171,218.037 123.475,218.711 C124.241,219.107 124.995,219.617 125.658,220.322 C129.504,224.414 134.303,229.389 135.807,227.986 L136.175,227.877 C137.536,227.473 138.229,225.961 137.648,224.665" id="Fill-186" fill="#E6C19C"></path>
            <polyline id="Fill-187" fill="#DA4F80" points="132.356 234.767 143.214 226.97 145.378 245.354 133.496 254.105 132.356 234.767"></polyline>
            <path d="M136.007,222.454 L135.088,236.736 C135.079,236.874 135.184,236.993 135.321,237.001 C135.459,237.01 135.578,236.906 135.587,236.768 L136.506,222.486 C136.515,222.348 136.41,222.229 136.272,222.22 C136.135,222.211 136.016,222.316 136.007,222.454" id="Fill-188" fill="#453D7A"></path>
            <path d="M136.016,222.399 L140.942,233.445 C140.998,233.571 141.146,233.627 141.272,233.571 C141.398,233.515 141.455,233.367 141.399,233.241 L136.472,222.195 C136.416,222.069 136.268,222.012 136.142,222.069 C136.016,222.125 135.96,222.273 136.016,222.399" id="Fill-189" fill="#453D7A"></path>
            <polyline id="Fill-190" fill="#E26398" points="127.406 233.416 129.42 236.746 132.356 234.767 133.496 254.105 127.114 250.682 127.406 233.416"></polyline>
            <path d="M120.662,190.463 C120.662,193.448 118.242,195.868 115.257,195.868 C112.271,195.868 109.851,193.448 109.851,190.463 C109.851,187.478 112.271,185.058 115.257,185.058 C118.242,185.058 120.662,187.478 120.662,190.463" id="Fill-191" fill="#E6C19C"></path>
            <polyline id="Fill-192" fill="#DA4F80" points="127.114 250.682 130.187 249.283 133.496 254.105 127.114 250.682"></polyline>
            <path d="M120.144,189.544 C120.144,192.75 117.544,195.35 114.338,195.35 C111.131,195.35 108.532,192.75 108.532,189.544 C108.532,186.338 111.131,183.738 114.338,183.738 C117.544,183.738 120.144,186.338 120.144,189.544" id="Fill-193" fill="#453D7A"></path>
            <polyline id="Fill-194" fill="#58619D" points="275.594 242.05 244.695 260 240.281 311.203 258.525 322.68 295.604 299.138 292.955 244.109 285.902 245.569 280.89 239.107 275.594 242.05"></polyline>
            <polyline id="Fill-195" fill="#E6E4EC" points="244.695 260 249.992 270.3 259.114 265.028 258.525 322.68 240.281 311.203 244.695 260"></polyline>
            <polyline id="Fill-196" fill="#CCD0DF" points="259.114 265.028 292.955 244.109 295.604 299.138 258.525 322.68 259.114 265.028"></polyline>
            <path d="M273.04,267.752 C272.83,269.122 272.03,270.136 271.252,270.017 C270.475,269.898 270.014,268.691 270.223,267.321 C270.433,265.952 271.232,264.938 272.011,265.057 C272.788,265.176 273.249,266.383 273.04,267.752" id="Fill-197" fill="#312D5A"></path>
            <path d="M284.141,260.899 C283.932,262.27 283.131,263.283 282.354,263.165 C281.575,263.046 281.114,261.839 281.323,260.47 C281.533,259.1 282.334,258.086 283.111,258.204 C283.89,258.323 284.351,259.53 284.141,260.899" id="Fill-198" fill="#312D5A"></path>
            <polyline id="Fill-199" fill="#CCD0DF" points="240.281 311.203 249.689 307.684 258.525 322.68 240.281 311.203"></polyline>
            <polyline id="Fill-200" fill="#404085" points="280.89 239.107 280.89 251.564 259.114 265.028 249.992 270.3 244.695 260 278.611 240.373"></polyline>
            <path d="M277.442,280.895 C276.762,280.895 276.12,280.691 275.523,280.287 C271.805,277.771 271.181,267.98 271.157,267.564 L272.106,267.509 C272.112,267.605 272.725,277.245 276.057,279.499 C276.76,279.975 277.521,280.066 278.393,279.776 C283.048,278.225 282.762,265.504 282.259,260.734 L283.205,260.634 C283.282,261.365 285.021,278.57 278.693,280.68 C278.265,280.822 277.847,280.895 277.442,280.895" id="Fill-201" fill="#312D5A"></path>
            <polyline id="Fill-202" fill="#58619D" points="303.255 256.634 272.356 274.584 267.942 325.787 286.187 337.264 323.265 313.722 320.616 258.693 313.563 260.153 308.552 253.691 303.255 256.634"></polyline>
            <polyline id="Fill-203" fill="#E6E4EC" points="272.356 274.584 277.653 284.884 286.775 279.612 286.187 337.264 267.942 325.787 272.356 274.584"></polyline>
            <polyline id="Fill-204" fill="#CCD0DF" points="286.775 279.612 320.616 258.693 323.265 313.722 286.187 337.264 286.775 279.612"></polyline>
            <path d="M300.701,282.336 C300.491,283.706 299.691,284.72 298.913,284.602 C298.136,284.482 297.675,283.275 297.884,281.905 C298.094,280.536 298.894,279.522 299.672,279.641 C300.449,279.76 300.91,280.967 300.701,282.336" id="Fill-205" fill="#312D5A"></path>
            <path d="M311.802,275.484 C311.593,276.854 310.792,277.868 310.015,277.749 C309.236,277.63 308.775,276.423 308.984,275.054 C309.194,273.684 309.995,272.67 310.772,272.789 C311.551,272.907 312.012,274.114 311.802,275.484" id="Fill-206" fill="#312D5A"></path>
            <polyline id="Fill-207" fill="#CCD0DF" points="267.942 325.787 277.351 322.268 286.187 337.264 267.942 325.787"></polyline>
            <polyline id="Fill-208" fill="#404085" points="308.552 253.691 308.552 266.148 286.775 279.612 277.653 284.884 272.356 274.584 306.272 254.957"></polyline>
            <path d="M305.104,295.479 C304.423,295.479 303.781,295.275 303.185,294.871 C299.466,292.355 298.842,282.565 298.818,282.148 L299.768,282.093 C299.773,282.189 300.386,291.829 303.718,294.083 C304.421,294.56 305.183,294.65 306.054,294.36 C310.709,292.809 310.423,280.089 309.92,275.318 L310.866,275.219 C310.943,275.95 312.682,293.154 306.354,295.264 C305.926,295.406 305.508,295.479 305.104,295.479" id="Fill-209" fill="#312D5A"></path>
            <path d="M44.058,279.07 L43.935,279.039 C43.812,278.97 43.768,278.815 43.836,278.692 L48.534,270.253 C48.602,270.13 48.757,270.086 48.879,270.154 C49.002,270.223 49.046,270.378 48.978,270.501 L44.28,278.94 L44.058,279.07" id="Fill-210" fill="#312D5A"></path>
            <path d="M8.848,266.851 L8.724,266.819 C8.602,266.751 8.558,266.596 8.626,266.473 L13.324,258.033 C13.392,257.91 13.547,257.867 13.669,257.936 C13.792,258.004 13.836,258.158 13.768,258.281 L9.069,266.721 L8.848,266.851" id="Fill-211" fill="#312D5A"></path>
            <polyline id="Fill-212" fill="#E1B39C" points="16.295 259.603 4.063 266.709 2.315 286.98 9.538 291.524 24.217 282.204 23.169 260.418 20.376 260.996 18.393 258.438 16.295 259.603"></polyline>
            <polyline id="Fill-213" fill="#F5C8B6" points="4.063 266.709 6.16 270.787 9.771 268.7 9.538 291.524 2.315 286.98 4.063 266.709"></polyline>
            <polyline id="Fill-214" fill="#E6A182" points="9.771 268.7 23.169 260.418 24.217 282.204 9.538 291.524 9.771 268.7"></polyline>
            <path d="M15.285,269.778 C15.202,270.32 14.885,270.722 14.577,270.675 C14.269,270.628 14.086,270.15 14.169,269.607 C14.252,269.065 14.569,268.664 14.877,268.711 C15.185,268.759 15.367,269.236 15.285,269.778" id="Fill-215" fill="#312D5A"></path>
            <path d="M19.679,267.065 C19.596,267.607 19.28,268.009 18.972,267.962 C18.664,267.915 18.481,267.438 18.564,266.896 C18.647,266.353 18.964,265.951 19.272,265.998 C19.58,266.046 19.762,266.523 19.679,267.065" id="Fill-216" fill="#312D5A"></path>
            <polyline id="Fill-217" fill="#E6A182" points="2.315 286.98 6.04 285.587 9.538 291.524 2.315 286.98"></polyline>
            <path d="M14.727,269.947 L14.726,269.947 C14.586,269.947 14.472,269.833 14.473,269.692 L14.51,255.721 C14.51,255.599 14.598,255.494 14.718,255.472 C14.836,255.445 14.956,255.516 15.001,255.63 L19.358,266.889 C19.409,267.019 19.344,267.167 19.213,267.217 C19.083,267.266 18.936,267.203 18.885,267.071 L15.014,257.072 L14.98,269.694 C14.98,269.834 14.867,269.947 14.727,269.947" id="Fill-218" fill="#312D5A"></path>
            <path d="M14.98,269.825 C14.843,269.825 14.729,269.716 14.726,269.577 L14.443,258.238 C14.44,258.098 14.551,257.981 14.691,257.978 L14.697,257.978 C14.835,257.978 14.948,258.087 14.951,258.226 L15.234,269.564 C15.238,269.705 15.126,269.821 14.987,269.825 L14.98,269.825" id="Fill-219" fill="#312D5A"></path>
            <path d="M21.637,247.413 C21.637,247.413 17.105,266.298 15.209,276.406 C13.313,286.515 16.294,312.733 16.294,312.733 C16.294,312.733 17.241,314.313 19.453,314.313 C21.664,314.313 24.054,283.04 24.054,283.04 C24.054,283.04 27.007,260.048 28.586,260.364 C28.942,260.436 31.819,261.514 33.118,261.266 C37.597,260.409 43.994,256.488 43.75,251.835 C43.434,245.833 38.695,245.518 38.695,245.518 C38.695,245.518 30.482,244.886 29.534,245.201 C28.586,245.518 21.637,247.413 21.637,247.413" id="Fill-220" fill="#3A478B"></path>
            <path d="M32.157,254.221 C32.157,254.221 30.631,274.883 32.842,278.99 C35.054,283.097 47.392,295.586 47.392,295.586 C47.392,295.586 51.015,296.06 50.067,293.532 C49.12,291.006 40.572,275.807 40.572,275.807 L43.75,251.835 L36.8,243.306 L32.157,254.221" id="Fill-221" fill="#3A478B"></path>
            <path d="M16.536,217.146 C16.536,217.146 18.432,213.672 21.274,213.672 C24.118,213.672 42.707,217.807 43.971,219.07 C45.234,220.333 54.174,237.304 54.174,242.99 C54.174,248.676 52.278,268.262 52.278,268.262 C52.278,268.262 48.804,268.894 47.856,267.313 C46.908,265.734 45.96,246.149 45.96,246.149 C45.96,246.149 40.906,227.827 40.906,228.775 C40.906,229.723 16.536,217.146 16.536,217.146" id="Fill-222" fill="#E6E4EC"></path>
            <path d="M21.953,217.087 L40.496,222.229 L43.118,226.88 C43.118,226.88 44.697,248.992 43.75,251.835 C42.802,254.678 32.377,255.941 28.587,255.31 C24.796,254.678 21.637,247.413 21.637,247.413 L19.695,215.883 L21.953,217.087" id="Fill-223" fill="#E6E4EC"></path>
            <path d="M16.536,217.146 C16.536,217.146 11.285,226.667 10.969,233.301 C10.653,239.935 12.16,254.362 12.16,254.362 C12.16,254.362 14.056,255.626 15.951,254.678 C17.846,253.73 17.214,236.041 18.162,233.829 C19.11,231.618 25.112,217.719 25.112,217.719 C25.112,217.719 22.854,213.356 16.536,217.146" id="Fill-224" fill="#E6E4EC"></path>
            <path d="M34.188,207.678 C34.188,211.77 30.872,215.086 26.78,215.086 C22.689,215.086 19.372,211.77 19.372,207.678 C19.372,203.587 22.689,200.271 26.78,200.271 C30.872,200.271 34.188,203.587 34.188,207.678" id="Fill-225" fill="#A6527F"></path>
            <path d="M24.33,209.955 L26.852,217.575 C28.342,218.831 30.448,219.049 32.165,218.126 L32.969,217.692 L30.865,209.411 L24.33,209.955" id="Fill-226" fill="#A6527F"></path>
            <path d="M47.129,295.204 C47.129,295.204 48.096,299.097 47.783,299.836 C47.47,300.575 46.375,304.153 48.281,304.507 C50.187,304.86 51.396,303.072 51.595,301.205 C51.792,299.337 50.116,293.576 50.116,293.576 L47.129,295.204" id="Fill-227" fill="#453D7A"></path>
            <path d="M18.767,306.456 C17.802,306.306 16.708,305.999 15.612,305.797 C15.975,309.922 16.294,312.733 16.294,312.733 C16.543,315.319 17.36,315.1 19.506,314.428 C20.189,314.215 20.902,311.031 21.567,306.603 C20.529,306.584 19.538,306.577 18.767,306.456" id="Fill-228" fill="#A6527F"></path>
            <path d="M14.998,306.494 C14.998,306.494 17.157,308.653 21.602,308.145 C22.127,308.028 22.652,306.902 22.689,305.912 C22.707,305.454 22.634,304.952 22.539,304.512 C22.413,303.927 21.744,303.643 21.229,303.947 C20.326,304.482 18.927,305.13 17.644,304.966 C15.532,304.696 15.327,302.403 15.327,302.403 L14.901,302.413 C14.283,303.32 14.353,304.389 14.621,305.452 C14.671,305.653 14.736,305.853 14.815,306.046 L14.998,306.494" id="Fill-229" fill="#CCD0DF"></path>
            <path d="M50.067,293.532 C49.834,292.911 49.141,291.522 48.229,289.784 C47.458,290.903 46.589,291.954 46.357,292.138 C45.853,292.536 45.345,292.779 44.834,292.951 C46.356,294.536 47.392,295.586 47.392,295.586 C47.392,295.586 51.015,296.06 50.067,293.532" id="Fill-230" fill="#A6527F"></path>
            <path d="M42.809,291.66 L44.146,293.665 C44.146,293.665 48.066,295.491 49.047,290.546 L47.799,288.006 L47.354,288.096 C47.354,288.096 47.577,290.546 45.75,290.947 C43.923,291.348 43.121,291.125 43.121,291.125 L42.809,291.66" id="Fill-231" fill="#CCD0DF"></path>
            <path d="M19.917,317.771 C20.021,316.417 20.125,315.063 20.229,313.71 C20.245,313.502 20.259,313.277 20.17,313.088 C19.916,313.356 19.513,313.41 19.144,313.43 C18.174,313.48 17.198,313.405 16.248,313.206 C16.184,314.674 15.137,315.832 14.134,316.904 C13.13,317.976 11.998,318.982 11.378,320.313 C11.267,320.553 11.174,320.837 11.291,321.073 C11.436,321.368 11.822,321.437 12.15,321.442 C13.597,321.469 15.02,321.007 16.296,320.324 C17.572,319.642 18.788,318.676 19.917,317.771" id="Fill-232" fill="#453D7A"></path>
            <path d="M35.067,207.976 C35.067,209.561 34.391,210.847 33.556,210.847 C32.722,210.847 32.045,209.561 32.045,207.976 C32.045,206.39 32.722,205.104 33.556,205.104 C34.391,205.104 35.067,206.39 35.067,207.976" id="Fill-233" fill="#A6527F"></path>
            <path d="M26.78,200.271 C23.646,200.271 20.972,202.22 19.89,204.97 C21.204,205.745 23.29,206.008 24.622,206.023 C25.207,206.03 30.503,205.299 30.271,204.372 C30.559,205.52 31.001,206.629 31.583,207.659 C31.584,206.533 32.466,205.472 33.573,205.265 L33.765,205.229 C32.753,202.343 30.012,200.271 26.78,200.271" id="Fill-234" fill="#453D7A"></path>
            <path d="M52.252,268.419 C52.252,269.907 51.045,271.114 49.557,271.114 C48.068,271.114 46.861,269.907 46.861,268.419 C46.861,266.93 48.068,265.723 49.557,265.723 C51.045,265.723 52.252,266.93 52.252,268.419" id="Fill-235" fill="#A6527F"></path>
            <path d="M17.027,256.226 C17.027,257.714 15.82,258.921 14.331,258.921 C12.843,258.921 11.636,257.714 11.636,256.226 C11.636,254.736 12.843,253.529 14.331,253.529 C15.82,253.529 17.027,254.736 17.027,256.226" id="Fill-236" fill="#A6527F"></path>
            <polyline id="Fill-237" fill="#6572A8" points="52.522 272.838 40.289 279.944 38.542 300.216 45.765 304.76 60.444 295.439 59.396 273.653 56.603 274.231 54.619 271.673 52.522 272.838"></polyline>
            <polyline id="Fill-238" fill="#E6E4EC" points="40.289 279.944 42.386 284.022 45.998 281.936 45.765 304.76 38.542 300.216 40.289 279.944"></polyline>
            <polyline id="Fill-239" fill="#CCD0DF" points="45.998 281.936 59.396 273.653 60.444 295.439 45.765 304.76 45.998 281.936"></polyline>
            <path d="M51.511,283.014 C51.428,283.556 51.111,283.958 50.803,283.91 C50.495,283.863 50.313,283.386 50.396,282.844 C50.479,282.301 50.795,281.899 51.104,281.946 C51.411,281.994 51.594,282.472 51.511,283.014" id="Fill-240" fill="#312D5A"></path>
            <path d="M55.906,280.301 C55.823,280.843 55.506,281.245 55.198,281.197 C54.89,281.15 54.708,280.673 54.791,280.131 C54.874,279.588 55.19,279.187 55.498,279.233 C55.806,279.281 55.989,279.759 55.906,280.301" id="Fill-241" fill="#312D5A"></path>
            <polyline id="Fill-242" fill="#CCD0DF" points="38.542 300.216 42.266 298.822 45.765 304.76 38.542 300.216"></polyline>
            <path d="M50.953,283.183 L50.953,283.183 C50.812,283.183 50.699,283.068 50.699,282.928 L50.736,268.956 C50.737,268.834 50.824,268.729 50.944,268.707 C51.062,268.681 51.183,268.752 51.227,268.865 L55.584,280.124 C55.636,280.254 55.571,280.402 55.439,280.452 C55.31,280.501 55.162,280.438 55.111,280.307 L51.241,270.308 L51.207,282.93 C51.207,283.069 51.093,283.183 50.953,283.183" id="Fill-243" fill="#312D5A"></path>
            <path d="M51.207,283.061 C51.069,283.061 50.956,282.951 50.953,282.813 L50.67,271.474 C50.667,271.334 50.777,271.218 50.917,271.214 L50.924,271.214 C51.061,271.214 51.174,271.322 51.178,271.462 L51.46,282.801 C51.464,282.94 51.353,283.057 51.213,283.061 L51.207,283.061" id="Fill-244" fill="#312D5A"></path>
            <polyline id="Fill-245" fill="#38347E" points="125.187 113.074 126.255 112.005 178.207 142 178.163 157.528 177.095 158.597 125.187 113.074"></polyline>
            <path d="M150.799,129.884 L148.109,128.331 L150.799,129.884 Z M150.724,137.26 L150.091,136.854 L150.724,137.26 Z M145.236,135.177 L146.221,135.745 L146.221,135.746 L145.236,135.177 Z M137.183,122.042 C136.869,121.975 136.594,121.983 136.368,122.067 C136.594,121.983 136.869,121.975 137.183,122.042 Z M139.817,123.682 C139.308,123.19 138.784,122.794 138.234,122.478 C138.784,122.794 139.308,123.19 139.817,123.682 Z M138.914,126.688 C138.788,126.563 138.661,126.44 138.535,126.321 C138.326,126.127 138.129,125.945 137.952,125.768 C137.597,125.414 137.318,125.083 137.172,124.726 C137.099,124.547 137.06,124.361 137.06,124.164 C137.06,124.361 137.099,124.547 137.172,124.726 C137.318,125.083 137.597,125.414 137.952,125.768 C138.129,125.945 138.326,126.127 138.535,126.321 C138.661,126.44 138.788,126.563 138.914,126.688 C139.166,126.939 139.412,127.205 139.635,127.489 C139.412,127.205 139.166,126.939 138.914,126.688 Z M138.94,129.973 C138.806,130.07 138.62,130.068 138.404,130.007 C138.62,130.068 138.806,130.07 138.94,129.973 Z M137.401,129.474 C137.537,129.572 137.685,129.666 137.834,129.752 C137.991,129.843 138.14,129.914 138.28,129.966 C138.14,129.914 137.991,129.843 137.834,129.753 C137.685,129.666 137.537,129.572 137.401,129.474 Z M143.534,133.159 L143.899,133.332 C144.042,133.393 144.153,133.41 144.2,133.308 C144.153,133.41 144.042,133.393 143.899,133.332 L143.534,133.159 L143.531,134.193 L143.534,133.159 Z M143.609,125.733 L143.606,126.817 L143.609,125.733 Z M145.585,131.67 L148.731,133.487 L148.725,135.695 C148.725,135.855 148.696,135.938 148.642,135.968 C148.588,136 148.507,135.979 148.402,135.932 C148.507,135.979 148.588,136 148.642,135.968 C148.696,135.938 148.725,135.855 148.725,135.695 L148.731,133.487 L145.585,131.67 Z M126.255,112.005 L126.211,127.534 L178.163,157.528 L178.207,142 L126.255,112.005 L126.255,112.005 Z" id="Fill-246" fill="#38347E"></path>
            <path d="M164.938,140.974 C166.027,141.603 166.683,142.187 166.68,143.5 C166.676,144.637 166.019,144.64 165.051,144.081 L164.251,143.619 L164.259,140.582 L164.938,140.974" id="Fill-247" fill="#58619D"></path>
            <path d="M155.988,141.943 C157.399,142.758 157.803,141.458 157.808,139.927 C157.811,138.623 157.517,136.611 155.984,135.726 C154.56,134.904 154.09,136.154 154.086,137.676 C154.082,139.129 154.388,141.02 155.988,141.943 M156.053,134.45 C157.709,135.406 159.195,137.44 159.186,140.683 C159.178,143.608 157.852,144.313 155.906,143.19 C153.928,142.048 152.688,139.849 152.697,136.936 C152.706,133.669 154.499,133.553 156.053,134.45" id="Fill-248" fill="#E6E4EC"></path>
            <path d="M155.984,135.726 C157.517,136.611 157.811,138.623 157.808,139.927 C157.803,141.458 157.399,142.758 155.988,141.943 C154.388,141.02 154.082,139.129 154.086,137.676 C154.09,136.154 154.56,134.904 155.984,135.726" id="Fill-249" fill="#58619D"></path>
            <path d="M137.166,123.546 C137.898,123.969 138.587,124.531 139.253,125.273 L139.248,127.19 L138.113,126.625 L138.115,125.882 C138.116,125.64 138.083,125.519 137.884,125.329 C137.673,125.129 137.384,124.938 137.162,124.81 C136.505,124.431 135.994,124.44 135.992,125.232 C135.989,126.024 136.632,126.613 137.466,127.39 C138.476,128.343 139.542,129.481 139.538,131.13 C139.533,132.813 138.374,133.068 136.841,132.183 C135.952,131.67 135.263,131.104 134.597,130.362 L134.602,128.343 L135.737,128.911 L135.735,129.688 C135.735,129.93 135.767,130.051 135.966,130.244 C136.177,130.444 136.466,130.648 136.766,130.821 C137.499,131.244 138.1,131.323 138.102,130.364 C138.104,129.559 137.473,128.964 136.695,128.273 C135.596,127.293 134.576,126.194 134.581,124.56 C134.585,123.001 135.631,122.659 137.166,123.546" id="Fill-250" fill="#E6E4EC"></path>
            <path d="M149.73,130.952 L149.728,131.986 L149.362,131.813 C149.173,131.732 149.041,131.73 149.04,132.037 L149.023,137.922 L149.655,138.328 L149.652,139.412 L146.963,137.859 L146.966,136.825 L147.333,137 C147.544,137.094 147.656,137.083 147.657,136.763 L147.663,134.555 L144.517,132.739 L144.509,135.316 L145.155,135.73 L145.152,136.814 L142.463,135.261 L142.466,134.227 L142.831,134.4 C143.02,134.481 143.156,134.485 143.156,134.23 L143.173,128.292 L142.538,127.885 L142.541,126.801 L145.23,128.354 L145.228,129.388 L144.862,129.215 C144.649,129.12 144.527,129.124 144.526,129.444 L144.521,131.422 L147.667,133.238 L147.673,130.891 L147.038,130.483 L147.041,129.399 L149.73,130.952" id="Fill-251" fill="#E6E4EC"></path>
            <path d="M164.259,140.582 L164.251,143.619 L165.051,144.081 C166.019,144.64 166.676,144.637 166.68,143.5 C166.683,142.187 166.027,141.603 164.938,140.974 L164.259,140.582 M165.193,145.404 L164.248,144.858 L164.242,146.709 L165.31,147.366 L165.307,148.45 L162.196,146.653 L162.199,145.619 L162.566,145.795 C162.755,145.876 162.888,145.878 162.889,145.623 L162.906,139.685 L162.273,139.28 L162.276,138.196 L165.452,140.029 C167.087,140.974 168.085,142.445 168.08,144.156 C168.074,146.098 166.872,146.373 165.193,145.404" id="Fill-252" fill="#E6E4EC"></path>
            <path d="M136.841,132.183 C138.374,133.068 139.533,132.813 139.538,131.13 C139.542,129.481 138.476,128.343 137.466,127.39 C136.632,126.612 135.989,126.024 135.992,125.232 C135.994,124.44 136.505,124.431 137.162,124.81 C137.384,124.938 137.673,125.129 137.884,125.329 C138.083,125.519 138.116,125.64 138.115,125.882 L138.113,126.625 L139.248,127.19 L139.253,125.273 C138.587,124.531 137.898,123.969 137.166,123.546 C135.631,122.659 134.585,123.001 134.581,124.56 C134.576,126.194 135.596,127.293 136.695,128.272 C137.473,128.964 138.104,129.559 138.102,130.364 C138.1,131.323 137.499,131.244 136.766,130.821 C136.466,130.648 136.177,130.444 135.966,130.244 C135.767,130.051 135.735,129.93 135.735,129.688 L135.737,128.911 L134.602,128.343 L134.597,130.361 C135.263,131.104 135.952,131.67 136.841,132.183 M165.193,145.404 C166.872,146.373 168.074,146.098 168.08,144.156 C168.085,142.445 167.087,140.974 165.452,140.029 L162.276,138.196 L162.273,139.28 L162.906,139.685 L162.889,145.623 C162.888,145.878 162.755,145.876 162.566,145.795 L162.199,145.619 L162.196,146.653 L165.307,148.45 L165.31,147.366 L164.242,146.709 L164.248,144.858 L165.193,145.404 M155.906,143.19 C157.852,144.313 159.178,143.608 159.186,140.683 C159.195,137.44 157.709,135.406 156.053,134.45 C154.499,133.553 152.706,133.669 152.697,136.936 C152.688,139.849 153.928,142.048 155.906,143.19 M149.728,131.986 L149.73,130.952 L147.041,129.399 L147.038,130.483 L147.673,130.891 L147.667,133.238 L144.521,131.422 L144.526,129.444 C144.527,129.124 144.649,129.12 144.862,129.215 L145.228,129.388 L145.23,128.354 L142.541,126.801 L142.538,127.885 L143.173,128.292 L143.156,134.23 C143.156,134.485 143.02,134.481 142.831,134.4 L142.466,134.227 L142.463,135.261 L145.152,136.814 L145.155,135.73 L144.509,135.316 L144.517,132.739 L147.663,134.555 L147.657,136.763 C147.656,137.083 147.544,137.094 147.333,137 L146.966,136.825 L146.963,137.859 L149.652,139.412 L149.655,138.328 L149.023,137.922 L149.04,132.037 C149.041,131.73 149.173,131.732 149.362,131.813 L149.728,131.986 M125.187,113.074 L177.139,143.068 L177.095,158.597 L125.143,128.602 L125.187,113.074" id="Fill-253" fill="#58619D"></path>
        </g>
    </g>
</svg>